<?xml version="1.0" encoding="utf-8"?><svg xml:space="preserve" viewBox="0 0 100 100" y="0" x="0" xmlns="http://www.w3.org/2000/svg" id="圖層_1" version="1.1" width="128px" height="128px" xmlns:xlink="http://www.w3.org/1999/xlink" style="width:100%;height:100%;background-size:initial;background-repeat-y:initial;background-repeat-x:initial;background-position-y:initial;background-position-x:initial;background-origin:initial;background-image:initial;background-color:rgb(255, 255, 255);background-clip:initial;background-attachment:initial;animation-play-state:paused" ><g class="ldl-scale" style="transform-origin:50% 50%;transform:scale(0.8);animation-play-state:paused" ><circle stroke="#333" stroke-width="8" fill="#fff" stroke-miterlimit="10" r="37" cy="50" cx="50" style="stroke:rgb(51, 51, 51);fill:rgb(255, 255, 255);animation-play-state:paused" ></circle>
<path fill="#333" d="M61.082 51.008L33.734 70.655a1.242 1.242 0 0 1-1.967-1.009V30.353a1.242 1.242 0 0 1 1.967-1.009l27.348 19.647c.69.496.69 1.522 0 2.017z" style="fill:rgb(51, 51, 51);animation-play-state:paused" ></path>
<path fill="#333" d="M66.884 71h-4.169a1.349 1.349 0 0 1-1.349-1.349V30.349c0-.745.604-1.349 1.349-1.349h4.169c.745 0 1.349.604 1.349 1.349v39.303A1.35 1.35 0 0 1 66.884 71z" style="fill:rgb(51, 51, 51);animation-play-state:paused" ></path>
<metadata xmlns:d="https://loading.io/stock/" style="animation-play-state:paused" ><d:name style="animation-play-state:paused" >fast forward</d:name>


<d:tags style="animation-play-state:paused" >fast forward,move,seek,ahead,speed up,next section,player</d:tags>


<d:license style="animation-play-state:paused" >by</d:license>


<d:slug style="animation-play-state:paused" >wn8xwb</d:slug></metadata></g><!-- generated by https://loading.io/ --></svg>